<?xml version="1.0" encoding="utf-8"?>
<!-- Generator: Adobe Illustrator 24.1.0, SVG Export Plug-In . SVG Version: 6.00 Build 0)  -->
<svg version="1.1" id="Layer_1" xmlns="http://www.w3.org/2000/svg" xmlns:xlink="http://www.w3.org/1999/xlink" x="0px" y="0px"
	 viewBox="0 0 150 25" style="enable-background:new 0 0 150 25;" xml:space="preserve">
<style type="text/css">
	.st0{fill:#FFFFFF;}
</style>
<g>
	<path class="st0" d="M12.7,16.6h-0.9L18,5.9h2v11.7h-2V8.9L18.5,9l-5.1,8.7h-2.2L6,9l0.5-0.1v8.8H4.4V5.9h2.1L12.7,16.6z"/>
	<path class="st0" d="M23.2,5.9h2.1v11.7h-2.1V5.9z"/>
	<path class="st0" d="M28.5,17.7V5.9h6.9c0.9,0,1.6,0.1,2.3,0.4c0.6,0.2,1.1,0.6,1.5,1.1s0.5,1.2,0.5,2c0,0.5-0.1,1-0.3,1.4
		s-0.4,0.7-0.8,0.9c-0.3,0.2-0.7,0.4-1.1,0.6c-0.4,0.1-0.9,0.2-1.4,0.3L36,12.4c0.8,0,1.4,0.1,1.9,0.2c0.5,0.1,0.9,0.4,1.2,0.7
		s0.4,0.8,0.4,1.5v2.8h-2v-2.7c0-0.5-0.1-0.8-0.2-1.1c-0.2-0.3-0.4-0.4-0.8-0.5c-0.4-0.1-1-0.2-1.7-0.2h-4.1v4.5h-2.2
		C28.5,17.6,28.5,17.7,28.5,17.7z M30.5,11.5h4.9c0.7,0,1.3-0.2,1.6-0.5c0.4-0.4,0.6-0.8,0.6-1.4c0-0.6-0.2-1-0.6-1.3
		c-0.4-0.3-0.9-0.5-1.6-0.5h-4.9C30.5,7.8,30.5,11.5,30.5,11.5z"/>
	<path class="st0" d="M41.9,5.9h11.5v1.8l-9.6,8.8l-0.2-0.6h9.8v1.8H41.9v-1.8l9.6-8.8l0.2,0.6h-9.8V5.9z"/>
	<path class="st0" d="M54.9,17.7L60,5.9h2.2l5.2,11.7h-2.2L60.6,7.1h0.9L57,17.7H54.9z M57.6,14.9v-1.8h7v1.8H57.6z"/>
	<path class="st0" d="M76.9,17.7L72.2,5.9h2.2l4,10.3h-0.7l3.8-10.3H84l3.8,10.3h-0.7l4-10.3h2.2l-4.6,11.7h-2.4L82.5,7.4h0.6
		l-3.8,10.3H76.9z"/>
	<path class="st0" d="M92.7,17.7L97.8,6h2.2l5.2,11.7H103L98.5,7.1h0.9l-4.5,10.6H92.7z M95.4,14.9v-1.8h7v1.8H95.4z"/>
	<path class="st0" d="M112.8,17.9c-1.4,0-2.6-0.2-3.6-0.7s-1.8-1.2-2.4-2.1c-0.6-0.9-0.8-2-0.8-3.2s0.3-2.3,0.8-3.3
		c0.6-0.9,1.4-1.6,2.4-2.1s2.2-0.7,3.6-0.7s2.6,0.2,3.6,0.7s1.8,1.2,2.4,2.1s0.8,2,0.8,3.3s-0.3,2.3-0.8,3.2
		c-0.6,0.9-1.4,1.6-2.4,2.1C115.4,17.6,114.2,17.9,112.8,17.9z M112.8,16.1c0.9,0,1.7-0.2,2.4-0.5s1.3-0.8,1.7-1.4
		c0.4-0.6,0.6-1.4,0.6-2.4c0-0.9-0.2-1.7-0.6-2.4c-0.4-0.6-1-1.1-1.7-1.4s-1.5-0.5-2.4-0.5s-1.7,0.2-2.4,0.5s-1.3,0.8-1.7,1.4
		c-0.4,0.6-0.6,1.4-0.6,2.4s0.2,1.7,0.6,2.4c0.4,0.6,1,1.1,1.7,1.4S111.9,16.1,112.8,16.1z M111.8,16.9h2v4.4h-2V16.9z"/>
	<path class="st0" d="M120.4,17.7L125.5,6h2.2l5.2,11.7h-2.2l-4.5-10.6h0.9l-4.5,10.6H120.4z M123.1,14.9v-1.8h7v1.8H123.1z"/>
	<path class="st0" d="M134.7,17.7V5.9h6.9c0.9,0,1.6,0.1,2.3,0.4s1.1,0.6,1.5,1.1s0.5,1.2,0.5,2c0,0.5-0.1,1-0.3,1.4
		s-0.4,0.7-0.8,0.9c-0.3,0.2-0.7,0.4-1.1,0.6s-0.9,0.2-1.4,0.3l-0.2-0.1c0.8,0,1.4,0.1,1.9,0.2c0.5,0.1,0.9,0.4,1.2,0.7
		s0.4,0.8,0.4,1.5v2.8h-2V15c0-0.5-0.1-0.8-0.2-1.1s-0.4-0.4-0.8-0.5c-0.4-0.1-1-0.2-1.7-0.2h-4.1v4.5
		C136.8,17.7,134.7,17.7,134.7,17.7z M136.7,11.5h4.9c0.7,0,1.3-0.2,1.7-0.5c0.4-0.4,0.6-0.8,0.6-1.4c0-0.6-0.2-1-0.6-1.3
		c-0.4-0.3-0.9-0.5-1.7-0.5h-4.9V11.5z"/>
</g>
</svg>
